<?xml version="1.0" encoding="UTF-8"?>
<svg id="Expandidos" xmlns="http://www.w3.org/2000/svg" viewBox="0 0 189.9 189.9">
  <defs>
    <style>
      .cls-1 {
        fill: #f4f4f4;
      }

      .cls-2 {
        fill: #0a0a0a;
      }
    </style>
  </defs>
  <g id="Favicon">
    <rect class="cls-2" x="0" y="0" width="189.9" height="189.9" rx="32" ry="32"/>
    <g>
      <path class="cls-1" d="M94.95,104.45c-2.76,0-5-2.24-5-5v-9c0-2.76,2.24-5,5-5s5,2.24,5,5v9c0,2.76-2.24,5-5,5Z"/>
      <path class="cls-1" d="M121.94,125.9c-2.55,0-5.09-.71-7.35-2.1-4.16-2.57-6.64-7.02-6.64-11.91v-39.44c0-2.76,2.24-5,5-5s5,2.24,5,5v39.44c0,2.01,1.33,3.05,1.9,3.4.57.35,2.09,1.07,3.89.17,1.36-.68,2.21-2.05,2.21-3.58v-15.88c0-4.89,2.48-9.34,6.64-11.91,4.16-2.57,9.25-2.8,13.62-.61,4.77,2.39,7.74,7.18,7.74,12.52,0,1.35.89,2.05,1.27,2.29.38.24,1.41.72,2.61.12l6.88-3.44c2.47-1.24,5.47-.23,6.71,2.24,1.23,2.47.23,5.47-2.24,6.71l-6.88,3.44c-3.96,1.98-8.58,1.77-12.34-.56-3.77-2.33-6.02-6.36-6.02-10.79,0-1.52-.85-2.9-2.21-3.58-1.8-.9-3.32-.18-3.89.17-.57.35-1.9,1.39-1.9,3.4v15.88c0,5.34-2.97,10.14-7.74,12.52-1.99,1-4.13,1.49-6.27,1.49Z"/>
      <path class="cls-1" d="M76.95,122.45c-2.76,0-5-2.24-5-5v-39.44c0-2.01-1.33-3.05-1.9-3.4-.57-.35-2.09-1.08-3.89-.17-1.36.68-2.21,2.05-2.21,3.58v15.88c0,4.89-2.48,9.34-6.64,11.91-4.16,2.57-9.25,2.8-13.62.61-4.77-2.39-7.74-7.18-7.74-12.52,0-1.35-.89-2.05-1.27-2.29s-1.4-.72-2.61-.12l-6.88,3.44c-2.47,1.23-5.47.23-6.71-2.24-1.23-2.47-.23-5.47,2.24-6.71l6.88-3.44c3.96-1.98,8.58-1.77,12.34.56,3.77,2.33,6.02,6.36,6.02,10.79,0,1.52.85,2.9,2.21,3.58,1.8.9,3.32.18,3.89-.17.57-.35,1.9-1.39,1.9-3.4v-15.88c0-5.34,2.97-10.14,7.74-12.52,4.37-2.19,9.46-1.96,13.62.61,4.16,2.57,6.64,7.02,6.64,11.91v39.44c0,2.76-2.24,5-5,5Z"/>
    </g>
  </g>
</svg>